<svg width="254" height="228" viewBox="0 0 254 228" fill="none" xmlns="http://www.w3.org/2000/svg">
<g filter="url(#filter0_d_598_8315)">
<path d="M114.46 109.733C109.243 110.081 104.172 107.846 102.288 106.685H101.418L100.549 111.475V116.7L102.722 122.361C102.722 122.361 104.461 124.538 104.896 124.538C105.331 124.538 98.81 138.037 98.81 138.037V162.422L97.5059 174.179L99.2449 178.969C97.651 178.533 96.8975 178.446 106.635 181.582C116.372 184.717 120.835 175.05 121.85 169.824C122.284 164.018 123.154 152.755 123.154 154.148C123.154 155.542 129.24 158.213 132.283 159.374C139.528 161.696 154.714 166.341 157.496 166.341C160.278 166.341 163.582 165.18 164.886 164.599C169.233 160.68 166.625 149.794 166.19 148.488C165.842 147.442 163.727 145.73 162.712 145.004C161.309 144.198 160.263 143.725 157.496 142.827L145.759 139.779L144.889 141.956C144.845 141.556 144.573 141.268 143.585 140.65L141.846 137.601L140.107 139.779L138.369 140.65V139.343L139.238 136.73L138.369 135.424C138.079 135.279 137.412 134.902 137.064 134.553C136.717 134.205 136.34 133.537 136.195 133.247L135.76 129.328C136.816 127.316 139.012 122.291 140.542 118.877C142.083 115.439 142.281 108.572 141.846 105.378L138.369 100.588C124.023 110.604 120.98 109.297 114.46 109.733Z" fill="#263238"/>
<path d="M104.208 125.339C104.128 125.338 104.05 125.319 103.979 125.283C103.908 125.247 103.847 125.194 103.799 125.13C102.435 123.214 99.9393 117.623 99.6785 115.045C99.4176 112.467 100.887 106.336 100.948 106.058C100.981 105.93 101.062 105.821 101.174 105.753C101.287 105.685 101.421 105.663 101.549 105.693C101.677 105.722 101.788 105.8 101.859 105.911C101.931 106.021 101.956 106.155 101.93 106.284C101.93 106.354 100.444 112.537 100.678 114.993C100.913 117.449 103.347 122.831 104.617 124.573C104.656 124.626 104.683 124.687 104.699 124.752C104.714 124.816 104.717 124.883 104.706 124.949C104.696 125.014 104.672 125.077 104.638 125.134C104.603 125.19 104.557 125.239 104.504 125.278C104.413 125.327 104.31 125.348 104.208 125.339Z" fill="#263238"/>
<path d="M111.364 182.269L108.052 182.034C111.642 181.067 113.868 175.276 115.259 171.296C115.52 170.547 115.772 169.833 116.024 169.18C117.259 165.949 117.372 155.89 117.302 152.023C116.789 150.203 115.407 145.77 114.433 144.333C114.23 144.042 114.089 143.713 114.017 143.366C113.945 143.019 113.945 142.66 114.016 142.313C114.32 140.85 115.816 139.9 117.128 139.073C117.572 138.81 117.999 138.519 118.406 138.202C118.702 136.338 120.867 135.755 122.475 135.328C122.98 135.189 123.458 135.058 123.832 134.919C125.388 133.491 132.204 120.445 133.7 113.434C134.969 107.52 132.83 105.43 132.83 105.413L134.795 103.114C135.16 103.419 138.333 106.336 136.682 114.07C135.395 120.079 127.944 136.539 125.11 137.68C124.512 137.903 123.903 138.092 123.284 138.246C122.634 138.39 122.002 138.603 121.397 138.881C121.206 140.101 120.024 140.85 118.789 141.642C118.178 141.98 117.602 142.377 117.068 142.827C118.493 145.143 120.084 150.734 120.267 151.387L120.319 151.762C120.319 153.19 120.545 165.818 118.841 170.26C118.606 170.887 118.363 171.566 118.111 172.28C116.555 176.791 116.502 180.893 111.364 182.269Z" fill="white"/>
<path d="M167.398 152.067C165.024 150.9 158.843 149.68 155.139 148.897C153.557 148.566 152.192 148.27 151.166 148.026C149.463 147.621 147.672 147.837 146.115 148.635C145.652 148.838 145.176 149.007 144.689 149.141C142.811 149.611 141.533 147.764 140.611 146.415C140.507 146.267 140.394 146.092 140.272 145.936C139.098 146.624 137.481 147.564 135.925 147.12C135.564 147.011 135.23 146.829 134.943 146.585C134.655 146.34 134.421 146.039 134.256 145.7C133.859 144.845 133.568 143.944 133.386 143.018C133.099 141.808 132.899 141.041 132.299 140.562C130.248 138.925 130.256 138.15 130.213 137.95L131.752 135.433C132.448 136.462 133.265 137.403 134.186 138.237C135.369 139.312 136.128 140.777 136.325 142.365C136.456 143.006 136.648 143.633 136.899 144.237C137.54 144.022 138.153 143.729 138.724 143.366C139.151 143.085 139.613 142.862 140.098 142.705C141.463 142.365 142.298 143.575 143.098 144.734C143.425 145.242 143.798 145.72 144.211 146.162C144.428 146.092 144.689 145.988 144.976 145.866C147.137 144.813 149.599 144.554 151.931 145.134C152.896 145.378 154.235 145.657 155.782 146.005C159.468 146.708 163.062 147.83 166.494 149.35L167.398 152.067Z" fill="white"/>
<path d="M184.525 168.457C184.427 168.457 184.331 168.43 184.247 168.379C178.631 164.712 165.989 163.676 165.85 163.667C165.78 163.669 165.709 163.656 165.644 163.629C165.579 163.602 165.52 163.562 165.471 163.51C165.422 163.459 165.385 163.398 165.361 163.331C165.337 163.265 165.328 163.194 165.334 163.123C165.339 163.052 165.359 162.984 165.393 162.921C165.427 162.859 165.473 162.805 165.529 162.762C165.585 162.718 165.65 162.688 165.719 162.671C165.788 162.655 165.859 162.653 165.928 162.666C166.459 162.666 178.97 163.728 184.795 167.534C184.851 167.569 184.899 167.616 184.937 167.67C184.975 167.725 185.002 167.786 185.016 167.851C185.03 167.916 185.03 167.983 185.018 168.048C185.005 168.114 184.98 168.176 184.943 168.231C184.897 168.3 184.835 168.357 184.762 168.396C184.689 168.436 184.608 168.457 184.525 168.457Z" fill="#263238"/>
<path d="M180.005 158.546C179.612 158.537 179.223 158.473 178.848 158.355C177.049 157.841 167.546 152.729 167.164 152.511C167.046 152.448 166.959 152.341 166.92 152.214C166.881 152.087 166.893 151.949 166.955 151.832C167.019 151.714 167.127 151.626 167.256 151.587C167.384 151.548 167.523 151.56 167.642 151.623C171.024 153.451 177.77 156.996 179.118 157.388C179.479 157.535 179.874 157.574 180.257 157.501C180.288 157.384 180.36 157.282 180.46 157.214C180.56 157.146 180.681 157.116 180.801 157.13C180.921 157.143 181.033 157.2 181.115 157.289C181.197 157.378 181.244 157.493 181.248 157.614C181.243 157.748 181.208 157.879 181.145 157.997C181.081 158.114 180.992 158.216 180.883 158.294C180.626 158.472 180.317 158.561 180.005 158.546Z" fill="#263238"/>
<path d="M185.317 151.814C185.317 151.814 180.535 156.482 180.535 156.987C180.535 157.492 183.935 160.514 184.187 161.525C184.439 162.535 186.708 161.272 187.334 161.525C187.96 161.777 187.838 163.545 186.073 163.919C184.308 164.294 184.439 168.84 185.065 169.467C185.691 170.094 191.151 172.872 194.133 176.025C197.115 179.178 198.793 182.33 200.045 182.835C201.297 183.34 202.566 183.706 202.94 181.198C203.314 178.69 203.696 173.255 200.427 169.345C197.158 165.435 195.767 165.052 194.759 165.052C193.75 165.052 192.151 165.182 192.75 163.798C193.35 162.413 194.759 161.185 194.255 160.009C193.75 158.833 189.812 151.44 185.317 151.814Z" fill="#263238"/>
<path d="M202.775 184.682C202.408 184.7 202.042 184.618 201.719 184.443C201.396 184.267 201.126 184.007 200.94 183.689C200.911 183.63 200.893 183.566 200.888 183.5C200.884 183.435 200.892 183.369 200.913 183.306C200.934 183.244 200.967 183.186 201.011 183.137C201.054 183.087 201.107 183.047 201.167 183.018C201.284 182.96 201.42 182.95 201.545 182.991C201.67 183.032 201.775 183.12 201.836 183.236C201.879 183.306 202.219 183.872 203.279 183.611C204.731 183.245 205.887 182.827 206.183 181.102C206.591 177.339 205.822 173.541 203.983 170.234C202.866 168.546 201.527 167.017 200.001 165.688C198.637 164.407 197.567 163.397 197.489 162.317C197.489 161.925 197.489 161.533 197.445 161.124C197.519 159.561 197.221 158.003 196.576 156.578C195.437 154.305 192.733 151.353 190.168 150.264C187.812 149.297 186.743 149.724 185.821 152.006C185.769 152.129 185.671 152.227 185.547 152.278C185.423 152.329 185.284 152.328 185.161 152.276C185.037 152.224 184.939 152.125 184.889 152.001C184.838 151.877 184.839 151.738 184.891 151.614C186.065 148.81 187.717 148.13 190.586 149.324C193.455 150.517 196.306 153.678 197.541 156.125C198.268 157.676 198.614 159.378 198.55 161.089C198.55 161.484 198.567 161.867 198.602 162.239C198.645 162.918 199.645 163.859 200.793 164.939C202.388 166.33 203.786 167.932 204.948 169.702C206.922 173.219 207.738 177.269 207.279 181.277C206.844 183.584 205.235 184.177 203.627 184.577C203.349 184.653 203.062 184.688 202.775 184.682Z" fill="#263238"/>
<path d="M113.155 105.674C110.677 105.674 106.2 105.352 103.861 103.174C102.926 102.31 102.107 101.326 101.427 100.248C100.976 99.5032 100.429 98.8209 99.8008 98.2191C99.2415 97.7359 98.8379 97.0972 98.6413 96.384C98.4448 95.6708 98.464 94.9152 98.6967 94.2129C98.7469 94.0899 98.8435 93.9916 98.9656 93.9394C99.0876 93.8873 99.2253 93.8854 99.3487 93.9343C99.4111 93.9574 99.4681 93.9928 99.5165 94.0384C99.5649 94.0841 99.6036 94.139 99.6304 94.1999C99.6572 94.2609 99.6714 94.3266 99.6723 94.3931C99.6732 94.4597 99.6607 94.5258 99.6356 94.5874C99.48 95.1016 99.4795 95.6503 99.6341 96.1647C99.7888 96.6791 100.092 97.1363 100.505 97.4788C101.176 98.1389 101.761 98.8823 102.244 99.6909C102.879 100.702 103.645 101.625 104.522 102.434C106.939 104.681 112.347 104.707 113.894 104.655C114.028 104.655 114.156 104.708 114.251 104.803C114.345 104.898 114.398 105.026 114.398 105.16C114.398 105.294 114.345 105.423 114.251 105.517C114.156 105.612 114.028 105.665 113.894 105.665L113.155 105.674Z" fill="#263238"/>
<path d="M116.859 110.168C112.671 110.215 108.504 109.561 104.53 108.235C99.2008 106.145 99.3139 103.88 99.5312 103.262C99.5974 103.034 99.6757 102.811 99.766 102.591C99.9746 102.069 100.053 101.877 99.766 101.407C99.053 100.327 99.6355 97.9844 99.7051 97.7231C99.7379 97.5941 99.8203 97.4833 99.9343 97.4148C100.048 97.3463 100.185 97.3256 100.314 97.3573C100.443 97.3922 100.554 97.4764 100.622 97.5919C100.69 97.7075 100.711 97.8452 100.679 97.9756C100.444 98.8465 100.27 100.344 100.609 100.85C100.832 101.152 100.963 101.513 100.987 101.888C101.01 102.264 100.924 102.638 100.74 102.966C100.657 103.149 100.59 103.338 100.54 103.532C100.305 104.403 101.314 105.875 104.887 107.294C109.234 109.036 120.328 110.482 126.892 107.294C137.542 102.156 138.298 100.257 138.272 99.7958C138.246 99.3342 138.203 98.9249 138.151 98.4024C137.886 97.0092 137.94 95.5742 138.307 94.2047C138.898 92.6719 139.49 91.1478 138.881 89.2406C138.477 87.4956 138.27 85.7107 138.264 83.9194C138.203 82.735 138.151 81.6116 138.029 80.7581C137.881 79.2201 137.397 77.7336 136.612 76.4036C136.56 76.3623 136.518 76.311 136.486 76.253C136.455 76.1949 136.436 76.1312 136.429 76.0655C136.423 75.9998 136.429 75.9335 136.449 75.8704C136.468 75.8074 136.5 75.7488 136.542 75.6982C136.629 75.5957 136.751 75.5311 136.885 75.5181C137.018 75.505 137.151 75.5447 137.255 75.6285C137.985 76.2468 138.733 78.6679 138.994 80.6536C139.133 81.5245 139.185 82.7002 139.246 83.9107C139.248 85.6164 139.44 87.3165 139.82 88.9793C140.533 91.2262 139.82 92.9941 139.246 94.553C138.928 95.7916 138.887 97.085 139.124 98.3414C139.177 98.8465 139.229 99.3342 139.255 99.7871C139.307 100.919 138.133 103.027 127.3 108.243C124.397 109.637 120.597 110.168 116.859 110.168Z" fill="#263238"/>
<path d="M162.164 111.039C159.905 110.98 157.659 110.689 155.461 110.168C153.435 109.698 153.035 107.042 152.739 105.1C152.688 104.425 152.526 103.763 152.261 103.14C151.061 102.339 150.87 101.633 150.87 99.7871C150.769 98.8363 150.353 97.9469 149.688 97.2615C149.263 96.7169 148.891 96.1338 148.575 95.5197C147.871 94.1089 145.428 87.2114 146.019 85.2258C146.436 83.8411 144.749 80.7058 141.967 79.6259C138.942 78.4415 132.899 74.6967 132.647 74.5399C132.59 74.5051 132.541 74.4595 132.502 74.4056C132.463 74.3517 132.435 74.2907 132.42 74.2259C132.405 74.1612 132.402 74.0941 132.413 74.0284C132.423 73.9627 132.447 73.8998 132.482 73.8432C132.554 73.7304 132.666 73.65 132.796 73.6191C132.926 73.5882 133.063 73.6092 133.177 73.6777C133.238 73.6777 139.394 77.5358 142.332 78.6854C145.506 79.922 147.549 83.5362 146.984 85.5132C146.558 86.9589 148.592 93.299 149.47 95.093C149.779 95.6494 150.137 96.177 150.54 96.6693C151.339 97.529 151.826 98.6335 151.922 99.8045C151.922 101.546 152.087 101.799 152.87 102.321C153.426 102.696 153.574 103.645 153.739 104.934C154.009 106.676 154.339 108.853 155.687 109.167C160.347 110.238 165.615 110.517 166.172 108.618C166.641 107.024 166.441 104.499 166.259 102.269C166.091 100.885 166.056 99.4883 166.154 98.0976C166.372 96.5561 163.546 85.8354 161.807 79.4343C160.981 76.3165 160.329 73.8606 160.121 72.8852C159.512 70.0113 141.932 57.2614 137.429 55.4673C133.551 53.891 127.761 51.8183 122.197 51.9837C122.123 51.9904 122.049 51.9787 121.98 51.9499C121.912 51.921 121.852 51.8758 121.805 51.8183C120.975 50.8427 120.048 49.9529 119.041 49.1621L118.736 49.493C117.537 50.7906 114.728 53.8475 110.703 53.3249C108.49 53.0878 106.323 52.5304 104.269 51.6702C104.284 52.1333 104.122 52.5847 103.817 52.933L103.739 52.994C103.652 53.0549 101.592 54.3439 95.9143 53.8649C90.437 53.3685 87.4288 53.0985 82.1775 47.8383C80.7082 46.3665 79.0041 44.5724 77.1871 42.6652C72.9965 38.1627 68.2147 33.1376 66.3889 32.2232C64.3023 31.1781 60.5465 30.7601 59.1902 30.6381C59.0424 32.2319 58.2686 36.8824 54.3388 38.4762C54.3388 39.1032 54.617 40.9495 57.0253 44.1109L58.3555 45.8527C62.4157 51.2348 71.9358 63.8366 74.9527 65.1343C75.9264 65.5523 77.5609 66.1358 79.4215 66.8064C84.5075 68.6352 90.8456 70.9083 92.7322 72.8068C94.332 74.4006 95.7056 80.4881 96.9228 85.8702C97.6357 89.0055 98.3747 92.2539 98.8094 92.7764C99.7018 93.6242 100.738 94.3055 101.87 94.7882C102.627 95.0745 103.312 95.5234 103.878 96.1032C103.95 96.2154 103.975 96.3516 103.948 96.4821C103.92 96.6127 103.842 96.7269 103.73 96.8C103.619 96.8709 103.484 96.8961 103.355 96.8701C103.225 96.8442 103.111 96.7691 103.035 96.6606C102.541 96.2653 101.997 95.9373 101.418 95.6852C100.16 95.1469 99.0131 94.3791 98.0357 93.4209C97.4705 92.7503 96.9054 90.3205 95.9404 86.0967C94.8971 81.3416 93.4104 74.897 92.0193 73.4948C90.2805 71.753 83.812 69.4278 79.0824 67.7295C77.1958 67.0502 75.6047 66.4667 74.5527 65.9877C71.2924 64.5856 62.0071 52.2973 57.5557 46.3926L56.2255 44.6508C52.9043 40.2964 53.3129 38.1452 53.3738 37.9188C53.3912 37.8362 53.4301 37.7596 53.4866 37.6969C53.5431 37.6342 53.6152 37.5876 53.6955 37.5617C58.0425 36.0986 58.2164 30.0982 58.2251 30.0372C58.2273 29.9701 58.2429 29.9041 58.2709 29.8431C58.2989 29.7821 58.3387 29.7273 58.3881 29.6818C58.4375 29.6364 58.4954 29.6013 58.5585 29.5786C58.6215 29.5559 58.6885 29.546 58.7555 29.5495C58.9728 29.5495 64.0937 29.9066 66.841 31.2913C68.8146 32.319 73.4573 37.1873 77.9435 41.8988C79.7518 43.7973 81.4211 45.5914 82.9165 47.0545C87.907 52.0534 90.6195 52.2799 96.0273 52.7937C100.792 53.2291 102.791 52.3234 103.13 52.1405C103.234 51.9021 103.279 51.6422 103.261 51.3828C103.261 51.0954 103.261 50.4336 103.878 50.4336C104.095 50.4609 104.304 50.5289 104.495 50.6339C106.507 51.502 108.638 52.0599 110.816 52.2886C114.294 52.7327 116.902 49.9546 117.989 48.805C118.182 48.5606 118.411 48.3463 118.667 48.1692C118.962 48.0299 119.536 47.7599 122.388 50.9735C128.057 50.869 133.89 52.9504 137.803 54.5442C142.332 56.3992 160.347 69.1752 161.094 72.7284C161.294 73.6777 161.964 76.1249 162.772 79.2253C165.302 88.7006 167.372 96.6432 167.119 98.2892C167.034 99.6078 167.072 100.931 167.232 102.243C167.415 104.56 167.624 107.181 167.102 108.949C166.65 110.551 164.52 111.039 162.164 111.039Z" fill="#263238"/>
<path d="M110.625 57.54C109.074 57.5478 107.531 57.2976 106.061 56.7998C101.036 55.058 101.088 53.3597 101.149 53.0375C101.17 52.9047 101.242 52.7856 101.351 52.7064C101.459 52.6271 101.594 52.5943 101.727 52.6151C101.86 52.6359 101.978 52.7086 102.058 52.8172C102.137 52.9258 102.169 53.0614 102.149 53.1943C102.149 53.2813 102.349 54.4483 106.391 55.8069C109.13 56.686 112.072 56.7059 114.822 55.8638C117.572 55.0218 120 53.358 121.78 51.0954C121.821 51.0433 121.871 50.9999 121.929 50.9677C121.987 50.9355 122.05 50.9151 122.116 50.9078C122.181 50.9005 122.248 50.9064 122.311 50.9252C122.374 50.9439 122.433 50.9752 122.484 51.017C122.588 51.1022 122.654 51.2246 122.669 51.3581C122.683 51.4916 122.645 51.6255 122.563 51.7312C121.136 53.5354 119.322 54.9946 117.256 56.0002C115.189 57.0059 112.923 57.5322 110.625 57.54Z" fill="#263238"/>
<path d="M66.6152 17.6529L4.34766 6.72314L61.9117 8.74362L66.6152 17.6529Z" fill="#E8E8E8"/>
<path d="M56.3648 8.5433V5.71289L4.34766 6.72313L56.3648 8.5433Z" fill="#D9D9D9"/>
<path d="M59.7381 5.6521L48.9922 0L4.34766 6.7233L59.7381 5.6521Z" fill="#E8E8E8"/>
<path d="M53.8611 38.5804C53.7882 38.5832 53.7157 38.5688 53.6493 38.5386C53.5829 38.5084 53.5244 38.4631 53.4786 38.4063C53.4003 38.3192 45.7581 29.4273 43.4803 27.6333C43.0108 27.2675 42.5239 26.8669 42.0197 26.4576C39.9909 24.6323 37.7242 23.0912 35.2817 21.8767C32.1518 20.5529 28.1525 14.1083 27.9873 13.8296C27.953 13.7724 27.9304 13.7091 27.9206 13.6431C27.9108 13.5771 27.914 13.5099 27.9302 13.4452C27.9463 13.3805 27.975 13.3196 28.0147 13.266C28.0543 13.2125 28.1041 13.1672 28.1612 13.1329C28.2183 13.0986 28.2815 13.0759 28.3474 13.0661C28.4132 13.0563 28.4804 13.0595 28.5449 13.0757C28.6095 13.0919 28.6703 13.1206 28.7238 13.1603C28.7773 13.2 28.8224 13.2499 28.8567 13.3071C28.8567 13.3681 32.856 19.743 35.699 20.9535C38.1855 22.0073 40.5677 23.9581 42.6543 25.6738L44.0976 26.8408C46.4624 28.6958 53.922 37.3786 54.2436 37.7531C54.2869 37.8026 54.3199 37.8603 54.3408 37.9227C54.3616 37.9851 54.3698 38.0511 54.365 38.1167C54.3601 38.1824 54.3423 38.2464 54.3125 38.3051C54.2827 38.3638 54.2416 38.4159 54.1915 38.4585C54.1004 38.539 53.9826 38.5825 53.8611 38.5804Z" fill="#263238"/>
<path d="M38.6026 12.6626L5.68652 6.72314L39.8024 16.9997L38.6026 12.6626Z" fill="#9E9E9E"/>
<path d="M44.8193 18.5064L57.052 22.1903L57.9214 16.1376L43.3848 13.5249C43.3848 13.5249 43.7065 15.4147 43.889 16.1376C44.1429 16.9482 44.4537 17.7398 44.8193 18.5064Z" fill="#9E9E9E"/>
<path d="M106.2 52.3318H106.061C105.996 52.3137 105.937 52.2831 105.884 52.2418C105.832 52.2004 105.789 52.1491 105.756 52.0908C105.724 52.0325 105.703 51.9684 105.696 51.9021C105.689 51.8359 105.694 51.7688 105.713 51.7047C105.713 51.7047 106.66 48.3518 105.713 46.0439C105.679 45.9813 105.66 45.9124 105.655 45.8417C105.65 45.7709 105.66 45.6998 105.684 45.6332C105.708 45.5665 105.746 45.5057 105.795 45.4547C105.844 45.4037 105.904 45.3637 105.97 45.3372C106.035 45.3108 106.106 45.2985 106.177 45.3011C106.247 45.3038 106.317 45.3214 106.38 45.3527C106.444 45.3841 106.5 45.4285 106.545 45.4831C106.591 45.5376 106.624 45.6011 106.643 45.6694C107.712 48.2821 106.704 51.8354 106.643 51.9834C106.612 52.0791 106.553 52.1634 106.474 52.2254C106.396 52.2875 106.3 52.3245 106.2 52.3318Z" fill="#263238"/>
<path d="M117.432 50.573C117.353 50.573 117.274 50.554 117.203 50.5177C117.132 50.4814 117.071 50.4287 117.024 50.3639C115.65 48.4654 113.355 45.1386 113.442 44.2067C113.457 44.075 113.523 43.9544 113.625 43.87C113.727 43.7856 113.858 43.744 113.99 43.7539C114.122 43.7692 114.243 43.8346 114.329 43.9365C114.414 44.0385 114.458 44.1695 114.45 44.3025C114.45 44.8338 116.189 47.5597 117.841 49.7717C117.88 49.8255 117.908 49.8864 117.923 49.9509C117.938 50.0155 117.941 50.0824 117.93 50.1479C117.92 50.2134 117.897 50.2762 117.862 50.3327C117.827 50.3892 117.782 50.4383 117.728 50.4772C117.642 50.5384 117.538 50.5718 117.432 50.573Z" fill="#263238"/>
<path d="M173.692 129.023C173.572 129.021 173.452 129.006 173.335 128.98C171.944 128.675 166.502 123.092 165.511 121.734C164.745 120.764 163.766 119.983 162.65 119.452C162.096 120.222 161.749 121.122 161.642 122.065C161.537 123.354 161.338 124.616 160.59 125.13C160.411 125.248 160.207 125.323 159.994 125.349C159.782 125.375 159.566 125.351 159.364 125.278C157.816 124.808 158.051 123.371 158.382 121.385L158.495 120.68C158.839 119.126 159.426 117.636 160.233 116.265C160.372 116.003 160.52 115.716 160.599 115.542C160.199 114.871 158.564 112.171 157.443 110.316C157.374 110.202 157.353 110.065 157.384 109.934C157.415 109.804 157.495 109.691 157.608 109.62C157.664 109.585 157.727 109.561 157.793 109.55C157.858 109.54 157.925 109.542 157.99 109.558C158.054 109.573 158.115 109.601 158.169 109.64C158.223 109.679 158.269 109.728 158.303 109.785C158.834 110.656 161.459 114.95 161.581 115.202C161.703 115.455 161.581 115.803 161.12 116.7C160.368 117.977 159.82 119.364 159.494 120.811L159.373 121.516C159.034 123.589 159.016 124.085 159.651 124.277C159.894 124.355 159.981 124.277 160.025 124.277C160.477 123.972 160.599 122.465 160.642 121.969C160.734 120.664 161.278 119.432 162.181 118.485C162.271 118.423 162.374 118.381 162.482 118.363C162.59 118.345 162.701 118.351 162.807 118.381C164.172 118.978 165.367 119.906 166.284 121.081C167.623 122.822 172.701 127.769 173.544 127.952C173.64 127.952 173.805 127.996 173.848 127.908C173.892 127.821 173.848 127.125 173.101 126.419C172.101 125.548 168.806 121.194 169.093 120.192C169.123 120.083 169.183 119.985 169.266 119.908C169.349 119.831 169.451 119.779 169.562 119.757C170.032 119.661 170.501 120.001 173.188 122.37C174.57 123.598 176.665 125.444 177.187 125.548C177.388 125.588 177.591 125.617 177.796 125.635C177.686 125.442 177.564 125.256 177.43 125.078C177.013 124.495 176.187 123.589 175.387 122.709C174.41 121.722 173.522 120.65 172.736 119.504C172.674 119.386 172.661 119.249 172.7 119.122C172.74 118.994 172.827 118.888 172.944 118.825C173.062 118.762 173.2 118.748 173.328 118.785C173.457 118.823 173.565 118.909 173.631 119.025C174.38 120.093 175.214 121.098 176.126 122.03C176.996 122.97 177.796 123.859 178.248 124.486C178.7 125.113 179.117 125.766 178.761 126.228C178.404 126.689 177.7 126.646 177.022 126.498C176.344 126.35 174.84 125.113 172.553 123.092C171.944 122.552 171.214 121.899 170.623 121.412C171.523 122.934 172.59 124.351 173.805 125.635C174.77 126.506 175.161 127.586 174.779 128.326C174.688 128.538 174.536 128.718 174.342 128.842C174.148 128.967 173.922 129.03 173.692 129.023Z" fill="#263238"/>
<path d="M178.787 124.808C178.075 124.769 177.38 124.573 176.752 124.233C176.654 124.159 176.586 124.052 176.561 123.931C176.536 123.811 176.556 123.685 176.616 123.578C176.677 123.471 176.775 123.39 176.891 123.351C177.008 123.311 177.134 123.315 177.248 123.362C177.775 123.667 178.378 123.815 178.987 123.789L179.03 123.736C179.03 123.736 179.03 123.44 178.065 122.561C176.502 120.918 175.05 119.172 173.718 117.335C173.647 117.235 173.608 117.115 173.608 116.991C173.608 116.868 173.647 116.748 173.718 116.647C174.318 115.916 179.448 118.32 179.5 118.389C179.534 118.396 179.57 118.396 179.604 118.389C179.604 118.389 179.604 117.98 178.961 117.44C178.161 116.787 173.683 115.141 166.971 113.033L166.85 112.99C165.424 112.545 164.824 110.516 164.763 110.29C164.744 110.167 164.77 110.042 164.837 109.938C164.903 109.833 165.006 109.757 165.125 109.724C165.245 109.69 165.372 109.702 165.483 109.757C165.594 109.811 165.682 109.905 165.728 110.02C165.867 110.49 166.38 111.762 167.145 112.032H167.267C172.24 113.599 178.422 115.663 179.595 116.621C180.769 117.579 180.743 118.433 180.465 118.92C180.318 119.137 180.094 119.289 179.839 119.348C179.585 119.406 179.317 119.365 179.091 119.234C178.569 118.973 176.639 118.206 175.353 117.762C176.424 119.186 177.585 120.538 178.83 121.812C179.743 122.683 180.126 123.266 180.108 123.789C180.097 123.949 180.05 124.104 179.972 124.244C179.894 124.384 179.786 124.505 179.656 124.599C179.402 124.774 179.092 124.848 178.787 124.808Z" fill="#263238"/>
<path d="M99.0183 8.55231C99.0183 8.55231 92.7933 10.1548 91.9586 13.5687C91.124 16.9826 91.9586 20.5358 94.6451 20.1787C97.3316 19.8217 100.853 17.4877 103.2 17.6532C105.548 17.8186 105.052 18.7069 104.209 20.1962C103.365 21.6854 104.878 24.211 109.077 23.0353C113.277 21.8596 113.424 19.6736 116.459 20.5097C119.493 21.3457 116.728 28.2432 117.432 29.2186C118.137 30.194 118.302 31.57 119.884 29.2186C121.467 26.8672 123.849 23.671 126.361 24.5158C128.874 25.3606 124.014 30.2289 121.501 31.2391L118.98 32.2493C118.98 32.2493 117.972 39.3036 116.459 40.3138C116.459 40.3138 126.535 38.9726 130.369 35.4368C134.204 31.901 130.874 31.9532 131.543 30.0634C132.213 28.1735 136.073 28.0778 136.073 25.7873C136.073 23.4968 135.568 23.8365 132.047 22.1557C128.526 20.4748 129.526 19.6388 130.03 18.794C130.535 17.9493 131.039 16.4426 128.187 15.5978C125.335 14.7531 118.624 12.7413 119.858 10.895C121.093 9.04872 121.736 5.34742 117.406 5.66965C113.077 5.99188 108.938 8.81358 106.478 8.50877C104.017 8.20395 101.748 7.55078 99.0183 8.55231Z" fill="#263238"/>
<path d="M107.234 46.5664H107.113L105.982 46.3139C103.052 45.6694 96.9578 44.337 93.7062 42.0291C89.7329 39.2074 90.4546 32.188 91.1675 29.9498C91.8804 27.7116 93.4888 20.1435 93.5062 20.0303C93.5195 19.9638 93.5464 19.9008 93.5853 19.8453C93.6242 19.7898 93.6743 19.7431 93.7323 19.7081C93.7878 19.6707 93.8508 19.6459 93.9168 19.6354C93.9829 19.6249 94.0504 19.6289 94.1148 19.6471C94.216 19.6565 94.3179 19.6565 94.4191 19.6471C94.4709 19.6206 94.5267 19.6029 94.5843 19.5949C95.9047 19.3393 97.1893 18.9241 98.4097 18.3582C100.149 17.6441 101.835 16.9648 103.235 17.0693C104.009 17.1302 104.974 17.2696 105.287 17.9402C105.6 18.6108 105.209 19.3946 104.652 20.3787C104.527 20.6208 104.476 20.8946 104.505 21.1657C104.534 21.4368 104.643 21.6932 104.817 21.9027C105.513 22.7736 107.06 23.0262 108.938 22.4949C110.212 22.1391 111.417 21.5709 112.503 20.8141C113.703 20.039 114.642 19.4294 116.598 19.9432C119.015 20.6225 118.458 24.08 118.059 26.6143C117.883 27.3613 117.813 28.1294 117.85 28.896C117.98 29.0789 118.093 29.2792 118.206 29.4708C118.294 29.6594 118.412 29.8328 118.554 29.9846C118.894 29.6615 119.187 29.2921 119.423 28.8873C120.841 26.8233 123.475 22.9826 126.483 23.9929C126.778 24.069 127.039 24.2396 127.227 24.4787C127.416 24.7178 127.521 25.0121 127.526 25.3166C127.587 27.311 123.849 30.7771 121.64 31.6567L119.363 32.5712C119.058 33.7904 117.754 38.8939 116.859 40.5137L116.685 40.8447C116.128 41.942 114.946 44.2412 112.712 45.4256C112.594 45.4872 112.457 45.4999 112.33 45.4608C112.203 45.4216 112.096 45.3339 112.033 45.2166C111.971 45.0973 111.959 44.9585 111.998 44.8299C112.037 44.7013 112.124 44.5931 112.242 44.5286C114.207 43.4922 115.276 41.3933 115.789 40.3831L115.981 40.026C116.902 38.3365 118.432 32.188 118.45 32.0835C118.468 32.0059 118.504 31.9338 118.555 31.8732C118.607 31.8126 118.672 31.7652 118.745 31.7351L121.267 30.7249C123.205 29.9498 126.561 26.7101 126.483 25.3428C126.483 25.2121 126.483 25.0554 126.127 24.9422C124.118 24.2716 122.101 26.6839 120.223 29.4621C119.45 30.5855 118.911 31.0036 118.389 30.9862C117.867 30.9687 117.519 30.4375 117.25 29.9672C117.154 29.8017 117.059 29.6276 116.946 29.4621C116.598 28.9744 116.72 28.0948 116.946 26.4488C117.293 24.2977 117.763 21.3541 116.215 20.9186C114.668 20.4832 114.077 20.9186 112.938 21.6328C111.81 22.4619 110.552 23.0976 109.217 23.5139C105.921 24.437 104.487 23.1655 104 22.5733C103.705 22.2118 103.523 21.7705 103.478 21.3053C103.433 20.8402 103.527 20.3722 103.748 19.9606C104.052 19.412 104.47 18.6717 104.365 18.4801C104.365 18.4801 104.209 18.245 103.139 18.1666C102.07 18.0882 100.34 18.7414 98.7923 19.3859C97.5163 19.9607 96.1809 20.393 94.8103 20.6748C94.6768 20.7241 94.5353 20.7477 94.393 20.7444C94.0192 22.4862 92.7324 28.3561 92.1238 30.2546C91.5152 32.1532 90.8197 38.7371 94.2887 41.2105C97.3664 43.3964 103.331 44.694 106.191 45.3298L107.347 45.5823C107.412 45.5977 107.473 45.6256 107.527 45.6646C107.58 45.7036 107.626 45.7528 107.661 45.8094C107.695 45.8661 107.719 45.929 107.729 45.9946C107.739 46.0603 107.737 46.1273 107.721 46.192C107.694 46.3001 107.631 46.3959 107.543 46.4638C107.454 46.5317 107.346 46.5679 107.234 46.5664Z" fill="#263238"/>
<path d="M92.4366 27.5986C92.3542 27.6001 92.2731 27.579 92.2018 27.5377C91.0531 26.8691 90.0506 25.9754 89.2544 24.91C88.4583 23.8446 87.8846 22.6294 87.5678 21.3369C87.3068 20.5839 87.3068 19.7647 87.5678 19.0116C87.7016 18.8161 87.8873 18.662 88.1039 18.5665C88.3205 18.4711 88.5595 18.4383 88.7937 18.4717C89.6631 18.5501 90.7934 19.3426 91.5932 21.215C92.0454 22.3889 92.6287 23.5079 93.3321 24.5505C93.4139 24.6568 93.4503 24.7912 93.4332 24.9243C93.416 25.0575 93.3468 25.1783 93.2408 25.2603C93.1347 25.3423 93.0005 25.3787 92.8676 25.3616C92.7347 25.3444 92.6141 25.2751 92.5322 25.1688C91.7587 24.0645 91.1196 22.8716 90.6282 21.6156C89.95 20.0044 89.0719 19.508 88.6546 19.4732C88.4546 19.4732 88.3851 19.5429 88.3677 19.569C88.0808 20.2048 89.098 24.7944 92.6452 26.6494C92.7435 26.7027 92.8213 26.7871 92.8664 26.8895C92.9115 26.9919 92.9215 27.1064 92.8946 27.215C92.8677 27.3236 92.8056 27.4203 92.718 27.4897C92.6304 27.5591 92.5222 27.5975 92.4105 27.5986H92.4366Z" fill="#263238"/>
<path d="M112.964 26.2048H112.703C112.486 26.1669 112.286 26.0629 112.131 25.907C111.975 25.7512 111.872 25.551 111.834 25.3339C111.695 24.7417 110.443 23.8969 109.591 23.4876C109.53 23.4588 109.476 23.4183 109.432 23.3684C109.387 23.3185 109.353 23.2603 109.331 23.1971C109.31 23.1339 109.301 23.067 109.305 23.0003C109.309 22.9335 109.326 22.8683 109.356 22.8083C109.384 22.7483 109.423 22.6945 109.472 22.65C109.521 22.6055 109.579 22.5714 109.641 22.5494C109.703 22.5275 109.77 22.5183 109.836 22.5224C109.902 22.5265 109.966 22.5438 110.025 22.5732C110.443 22.7735 112.52 23.8447 112.816 25.1075C112.816 25.1859 112.816 25.1859 112.886 25.1946C112.995 25.1981 113.104 25.1746 113.203 25.126C113.302 25.0774 113.387 25.0052 113.451 24.9159C113.506 24.8337 113.536 24.7366 113.536 24.6372C113.536 24.5378 113.506 24.4408 113.451 24.3585C112.79 23.1306 112.338 22.4425 111.781 22.2945C111.713 22.282 111.648 22.2556 111.591 22.2169C111.533 22.1782 111.484 22.128 111.447 22.0695C111.41 22.011 111.385 21.9454 111.374 21.8768C111.363 21.8083 111.367 21.7382 111.384 21.671C111.401 21.6038 111.432 21.5409 111.475 21.4862C111.518 21.4315 111.571 21.3863 111.632 21.3533C111.693 21.3203 111.76 21.3002 111.829 21.2943C111.898 21.2884 111.968 21.2969 112.034 21.3191C113.042 21.5804 113.651 22.5906 114.338 23.8882C114.483 24.1415 114.55 24.4325 114.53 24.7241C114.51 25.0157 114.404 25.2947 114.225 25.5255C114.078 25.7253 113.889 25.8899 113.671 26.0074C113.453 26.1249 113.211 26.1923 112.964 26.2048Z" fill="#263238"/>
<path d="M94.8978 22.6956C94.843 22.7039 94.7873 22.7039 94.7326 22.6956C94.4722 22.6383 94.2312 22.5143 94.0331 22.3357C93.8349 22.1571 93.6865 21.93 93.6024 21.6766C93.5623 21.4224 93.5789 21.1625 93.6511 20.9156C93.7232 20.6686 93.8491 20.4408 94.0197 20.2483C94.1153 20.1558 94.2431 20.104 94.3761 20.104C94.5091 20.104 94.6369 20.1558 94.7326 20.2483C94.8245 20.3427 94.8759 20.4693 94.8759 20.6011C94.8759 20.7329 94.8245 20.8594 94.7326 20.9538C94.6456 21.0583 94.4978 21.3108 94.5413 21.4502C94.5848 21.5895 94.6717 21.6244 94.8369 21.7027C95.763 21.2792 96.7593 21.0312 97.7756 20.9712C97.9242 20.9655 98.0675 20.9139 98.1858 20.8235C98.3041 20.7331 98.3916 20.6082 98.4363 20.4661C98.5672 20.1669 98.5917 19.8319 98.5059 19.5168C98.3915 19.5341 98.2747 19.5116 98.175 19.4529C98.0753 19.3943 97.9987 19.303 97.9581 19.1946C97.9119 19.0743 97.9141 18.9407 97.9644 18.822C98.0147 18.7034 98.1091 18.609 98.2277 18.5588C98.386 18.4921 98.5605 18.4739 98.7291 18.5064C98.8978 18.539 99.0531 18.6209 99.1753 18.7417C99.3904 19.0324 99.524 19.3755 99.5623 19.7354C99.6005 20.0952 99.5419 20.4587 99.3927 20.7883C99.282 21.1235 99.0722 21.4171 98.7912 21.6302C98.5102 21.8432 98.1711 21.9657 97.819 21.9814C96.8739 22.0379 95.9491 22.2806 95.0978 22.6956C95.0319 22.7105 94.9636 22.7105 94.8978 22.6956Z" fill="#263238"/>
<path d="M96.1575 25.6997C95.6494 25.4894 95.1263 25.3176 94.5925 25.1859C94.3606 25.1238 94.1255 25.0744 93.8883 25.0378C93.6188 24.9856 93.3319 24.9594 92.958 24.8549C93.1556 24.5446 93.4464 24.3049 93.7884 24.1703C94.1305 24.0358 94.5064 24.0132 94.862 24.106C95.2272 24.1835 95.5548 24.3839 95.7905 24.6739C96.0261 24.9638 96.1556 25.3258 96.1575 25.6997Z" fill="#263238"/>
<path d="M105.33 27.0932C105.644 26.6688 106.091 26.3621 106.599 26.2223C107.111 26.0742 107.652 26.0562 108.173 26.17C108.687 26.2887 109.164 26.5308 109.564 26.8755C109.966 27.207 110.267 27.6444 110.434 28.1383C109.938 27.9641 109.564 27.7638 109.129 27.6157C108.747 27.4622 108.351 27.3427 107.947 27.2587C107.548 27.1599 107.14 27.1015 106.73 27.0845C106.26 27.0845 105.817 27.0845 105.33 27.0932Z" fill="#263238"/>
<path d="M99.0966 33.0941H99.001C98.1091 32.9146 97.2359 32.6522 96.3927 32.3103C96.2369 32.2431 96.0981 32.1417 95.9868 32.0136C95.8754 31.8855 95.7942 31.7338 95.7493 31.57C95.6687 30.9552 95.8241 30.3327 96.184 29.8282L98.6706 24.9251L98.7575 24.8032C98.922 24.6095 99.1297 24.4573 99.3639 24.3589C99.598 24.2606 99.8519 24.2189 100.105 24.2371C100.374 24.2925 100.629 24.4042 100.852 24.5648C101.075 24.7253 101.262 24.9312 101.401 25.1689C101.455 25.2701 101.476 25.3859 101.461 25.4999C101.461 25.4999 100.896 29.2099 100.835 30.7252C100.861 31.2391 100.719 31.7474 100.433 32.1743C100.146 32.6012 99.7291 32.9238 99.2444 33.0941H99.0966ZM99.5052 25.4302L97.0274 30.3159C96.8137 30.5961 96.6976 30.9387 96.697 31.2913C96.697 31.2913 96.697 31.3523 96.7926 31.3871C97.5224 31.6864 98.2794 31.9139 99.0531 32.0664C99.2973 31.9295 99.4973 31.7257 99.6298 31.4789C99.7622 31.232 99.8216 30.9524 99.8008 30.673C99.8617 29.2796 100.288 26.3185 100.409 25.526C100.297 25.3752 100.138 25.2652 99.9573 25.2125C99.8704 25.2167 99.7853 25.239 99.7075 25.278C99.6296 25.3169 99.5607 25.3718 99.5052 25.4389V25.4302Z" fill="#263238"/>
<path d="M92.9583 27.0676C93.1544 27.0035 93.3616 26.9813 93.5667 27.0023C93.7719 27.0233 93.9704 27.0871 94.1494 27.1895C94.7024 27.4941 95.1439 27.9674 95.4097 28.5407C95.6755 29.114 95.7518 29.7573 95.6274 30.377C95.3492 31.0911 94.445 30.2812 93.1409 29.7673C92.7149 29.6019 92.6714 29.7673 92.2715 29.628L92.9583 27.0676Z" fill="#263238"/>
<path d="M103.261 31.9359C103.114 32.8068 104.722 32.5978 106.609 32.9026C108.495 33.2074 109.93 33.9477 110.086 33.0419C110.243 32.1362 109.026 29.9067 107.148 29.6019C105.27 29.2971 103.409 31.0302 103.261 31.9359Z" fill="#263238"/>
<path d="M98.5576 36.8999C99.6966 36.5516 100.662 36.3774 101.583 36.09C102.045 35.9574 102.499 35.7945 102.939 35.6023C103.4 35.4194 103.809 35.1582 104.383 34.8882C104.267 35.4877 103.962 36.0343 103.513 36.4471C103.066 36.8544 102.53 37.1524 101.948 37.318C101.384 37.4815 100.793 37.5319 100.21 37.466C99.6198 37.4211 99.0512 37.2263 98.5576 36.8999Z" fill="#263238"/>
<path d="M120.658 79.0332C120.658 83.8579 118.641 87.7421 111.416 87.7421C106.321 87.7421 103.252 83.8405 103.252 79.0332C103.252 74.2258 105.304 70.3242 111.416 70.3242C117.528 70.3242 120.658 74.2171 120.658 79.0332Z" fill="#E8E8E8"/>
<path d="M110.547 80.1227H110.382C110.104 80.1227 109.573 80.1227 109.417 79.6437C109.26 79.1647 109.617 78.9383 109.86 78.7728C109.984 78.6738 110.097 78.5629 110.199 78.4419L110.121 78.3896C109.469 77.9368 105.105 78.0761 101.262 78.4767C101.196 78.4852 101.129 78.4803 101.065 78.4625C101.001 78.4446 100.942 78.414 100.89 78.3726C100.838 78.3312 100.795 78.2797 100.763 78.2213C100.731 78.1629 100.712 78.0987 100.705 78.0326C100.693 77.8989 100.733 77.7658 100.818 77.6616C100.902 77.5575 101.024 77.4905 101.157 77.4752C102.522 77.3358 109.408 76.6653 110.721 77.5623C110.872 77.6527 110.999 77.7799 111.089 77.9321C111.178 78.0843 111.228 78.2566 111.234 78.4332C111.238 78.5708 111.214 78.7078 111.165 78.8363C111.116 78.9649 111.042 79.0824 110.947 79.1821C111.364 79.1821 111.938 79.0863 112.599 79.008C115.511 78.6596 120.424 78.0761 124.684 79.217C124.809 79.2547 124.915 79.34 124.979 79.4547C125.043 79.5695 125.06 79.7046 125.026 79.8315C124.992 79.9584 124.91 80.067 124.797 80.1344C124.685 80.2018 124.551 80.2226 124.423 80.1924C120.311 79.1038 115.564 79.6698 112.721 80.0095C111.729 80.0269 111.008 80.1227 110.547 80.1227Z" fill="#263238"/>
<path d="M40.2631 21.1799C40.1647 21.1806 40.0684 21.152 39.9864 21.0977C39.9043 21.0434 39.8402 20.9659 39.8023 20.8751C39.4332 19.6414 39.2629 18.3567 39.298 17.0693L38.1069 12.8715C38.0859 12.7893 38.0855 12.7031 38.1058 12.6207C38.1261 12.5383 38.1664 12.4622 38.2233 12.3992C38.2801 12.3362 38.3516 12.2884 38.4315 12.2598C38.5113 12.2313 38.5969 12.2231 38.6807 12.2358L42.8887 12.9761C43.0974 12.9761 44.1059 13.307 44.2885 15.5887C44.3721 16.5557 44.7013 17.4851 45.2448 18.2885C45.2805 18.3446 45.3043 18.4073 45.3148 18.473C45.3253 18.5386 45.3224 18.6057 45.3061 18.6701C45.2898 18.7345 45.2606 18.7949 45.2201 18.8476C45.1797 18.9003 45.1289 18.9442 45.071 18.9765C45.0146 19.011 44.952 19.0338 44.8868 19.0437C44.8215 19.0536 44.7549 19.0504 44.691 19.0341C44.627 19.0179 44.5669 18.9891 44.5142 18.9493C44.4615 18.9094 44.4173 18.8595 44.3841 18.8023C43.7588 17.8708 43.3818 16.7945 43.2886 15.6758C43.1669 14.1692 42.6801 13.934 42.6714 13.934L39.298 13.3418L40.2892 16.8254C40.2934 16.8747 40.2934 16.9242 40.2892 16.9735C40.2503 18.1492 40.3911 19.3239 40.7065 20.457C40.759 20.5795 40.761 20.7178 40.7122 20.8418C40.6633 20.9658 40.5675 21.0654 40.4457 21.1189C40.3889 21.15 40.3271 21.1707 40.2631 21.1799Z" fill="#263238"/>
<path d="M58.729 30.5944C58.6371 30.5983 58.546 30.574 58.4682 30.5247C57.3206 29.8455 47.218 23.7666 45.8617 21.2584C45.8167 21.1803 45.793 21.0917 45.793 21.0015C45.793 20.9113 45.8167 20.8227 45.8617 20.7446C46.1433 20.235 46.3123 19.6707 46.3573 19.0899C46.363 19.0236 46.3817 18.959 46.4123 18.8999C46.4429 18.8408 46.4848 18.7884 46.5357 18.7455C46.5866 18.7026 46.6453 18.6702 46.7087 18.6501C46.7721 18.63 46.8388 18.6226 46.905 18.6283C46.9712 18.6341 47.0357 18.6528 47.0947 18.6835C47.1536 18.7141 47.206 18.7561 47.2488 18.8071C47.2916 18.858 47.324 18.9169 47.344 18.9804C47.3641 19.0439 47.3715 19.1107 47.3658 19.177C47.3061 19.8077 47.1384 20.4234 46.8702 20.9972C48.3482 23.0612 56.0252 27.9034 58.9638 29.7061C59.0218 29.7384 59.0725 29.7823 59.113 29.835C59.1534 29.8877 59.1827 29.9481 59.1989 30.0125C59.2152 30.077 59.2182 30.144 59.2077 30.2097C59.1971 30.2753 59.1733 30.3381 59.1377 30.3941C59.09 30.4572 59.0282 30.5083 58.9572 30.5431C58.8862 30.5778 58.8081 30.5954 58.729 30.5944Z" fill="#263238"/>
<path d="M109.868 203.249C109.868 203.249 109.39 195.882 108.999 195.525C108.608 195.168 103.608 195.847 102.582 195.333C101.557 194.819 100.991 197.632 100.331 197.946C99.67 198.259 98.2789 196.918 99.2266 195.168C100.174 193.417 96.2792 190.273 95.3055 190.352C94.3317 190.43 88.1241 192.964 83.325 193.26C78.5258 193.556 74.709 192.651 73.3875 193.347C72.066 194.044 70.8401 194.828 72.6833 196.953C74.5265 199.078 78.7692 203.284 84.403 203.337C90.0368 203.389 91.3583 202.466 92.0539 201.647C92.7494 200.828 93.7927 199.339 94.5491 200.863C95.3055 202.387 95.3229 204.451 96.6357 204.843C97.9485 205.235 106.938 207.325 109.868 203.249Z" fill="#263238"/>
<path d="M101.47 210.757C100.154 210.767 98.8408 210.624 97.5576 210.33C95.748 209.826 94.0828 208.901 92.6976 207.63C92.3672 207.36 92.0368 207.09 91.7064 206.846C91.0805 206.385 89.5677 206.55 87.8289 206.742C85.5246 207.084 83.1842 207.108 80.8735 206.811C76.5353 205.954 72.5791 203.744 69.5711 200.497C67.9627 198.503 68.6235 196.753 69.432 195.124C69.6195 194.621 69.9741 194.197 70.4363 193.924C70.8985 193.652 71.4402 193.546 71.9707 193.626C72.0866 193.669 72.1828 193.753 72.241 193.862C72.2992 193.971 72.3153 194.098 72.2864 194.218C72.2574 194.339 72.1854 194.444 72.0839 194.515C71.9825 194.585 71.8586 194.616 71.736 194.601C71.649 194.601 70.8665 194.462 70.3275 195.577C69.5885 197.066 69.119 198.329 70.3275 199.862C73.1905 202.913 76.9313 204.995 81.03 205.819C83.2492 206.093 85.495 206.066 87.7071 205.74C89.7329 205.514 91.3413 205.34 92.2803 206.036C92.628 206.289 92.9671 206.568 93.3149 206.846C94.5851 208.025 96.1167 208.885 97.7837 209.354C100.514 210.034 104.974 209.894 107.704 208.484C110.234 207.177 110.642 205.958 109.443 203.476C109.419 203.367 109.431 203.253 109.479 203.152C109.527 203.05 109.606 202.968 109.706 202.917C109.805 202.866 109.919 202.85 110.028 202.871C110.138 202.892 110.238 202.948 110.312 203.032C111.79 205.993 111.181 207.83 108.173 209.372C106.073 210.337 103.78 210.811 101.47 210.757Z" fill="#263238"/>
<path d="M97.114 193.826C97.0213 193.827 96.9303 193.801 96.8517 193.751C96.7732 193.702 96.7104 193.631 96.6706 193.547C96.6405 193.49 96.622 193.428 96.6162 193.363C96.6104 193.299 96.6174 193.234 96.6369 193.173C96.6563 193.111 96.6877 193.054 96.7293 193.005C96.7709 192.955 96.8219 192.915 96.8793 192.885C96.9488 192.833 99.218 191.283 101.696 181.076C101.704 181.005 101.728 180.937 101.764 180.876C101.801 180.815 101.85 180.762 101.909 180.722C101.967 180.681 102.034 180.653 102.104 180.64C102.174 180.627 102.245 180.629 102.315 180.645C102.384 180.662 102.449 180.693 102.505 180.737C102.561 180.781 102.608 180.836 102.641 180.899C102.675 180.961 102.695 181.031 102.7 181.102C102.704 181.173 102.694 181.244 102.67 181.311C100.061 192.145 97.6096 193.643 97.3401 193.774C97.2698 193.809 97.1924 193.826 97.114 193.826Z" fill="#263238"/>
<path d="M107.33 197.345C107.203 197.345 107.081 197.296 106.989 197.209C106.897 197.121 106.841 197.002 106.835 196.874C106.591 193.077 111.599 182.557 111.817 182.113C111.89 182.031 111.989 181.975 112.097 181.955C112.206 181.934 112.318 181.95 112.417 181.999C112.515 182.049 112.595 182.129 112.644 182.228C112.692 182.327 112.707 182.44 112.686 182.548C112.634 182.653 107.582 193.278 107.8 196.805C107.805 196.871 107.796 196.938 107.775 197.001C107.754 197.064 107.721 197.122 107.677 197.172C107.633 197.223 107.58 197.264 107.521 197.293C107.461 197.323 107.397 197.34 107.33 197.345Z" fill="#263238"/>
<path d="M111.259 182.887C107.955 182.887 102.017 181.146 99.1744 179.465C96.201 177.723 97.1052 171.296 97.8964 165.617C97.992 164.921 98.0876 164.233 98.1746 163.58C98.5223 160.88 98.4354 155.689 98.3398 150.664C98.2354 144.733 98.1398 139.125 98.6875 136.8C99.696 132.445 108.434 116.421 108.808 115.741C108.838 115.682 108.879 115.63 108.93 115.588C108.981 115.545 109.04 115.514 109.104 115.495C109.167 115.476 109.234 115.471 109.299 115.479C109.365 115.487 109.428 115.508 109.486 115.541C109.544 115.572 109.595 115.614 109.637 115.665C109.678 115.717 109.709 115.775 109.728 115.839C109.746 115.902 109.752 115.968 109.745 116.034C109.738 116.099 109.718 116.163 109.686 116.22C109.599 116.386 100.644 132.854 99.6613 137.026C99.1483 139.229 99.2526 145.038 99.3483 150.647C99.4352 155.707 99.5309 160.941 99.1744 163.71C99.0875 164.372 98.9918 165.06 98.8875 165.757C98.1833 170.852 97.2965 177.2 99.6787 178.594C102.643 180.336 109.607 182.278 112.172 181.807C113.433 181.581 117.71 180.344 120.101 174.056C122.049 168.944 122.588 152.032 122.588 150.272C122.249 149.248 121.766 148.277 121.153 147.39C119.945 145.352 119.414 144.35 119.901 143.784C120.388 143.218 121.023 143.645 121.284 143.784C122.376 144.334 123.395 145.018 124.318 145.822L124.909 146.284C124.909 146.284 124.909 146.188 124.909 146.136C124.692 145.343 124.448 144.638 124.248 144.072C123.831 142.844 123.596 142.164 123.988 141.711C124.117 141.585 124.279 141.497 124.455 141.455C124.631 141.414 124.815 141.421 124.987 141.476C126.309 141.738 127.03 141.642 127.596 141.111C128.274 140.379 140.211 121.08 141.054 116.9C142.01 112.266 141.924 107.111 140.872 105.421C139.637 103.444 138.142 101.441 138.124 101.424C138.045 101.316 138.011 101.182 138.031 101.05C138.05 100.917 138.121 100.798 138.229 100.718C138.281 100.678 138.341 100.647 138.404 100.63C138.468 100.613 138.535 100.608 138.601 100.617C138.667 100.626 138.73 100.648 138.787 100.682C138.844 100.716 138.893 100.761 138.933 100.814C138.933 100.814 140.472 102.87 141.724 104.881C143.106 107.102 142.923 112.833 142.045 117.074C141.167 121.315 128.978 141.084 128.23 141.833C127.257 142.809 125.996 142.704 124.753 142.478C124.855 142.91 124.986 143.334 125.144 143.749C125.344 144.333 125.596 145.056 125.822 145.883C125.996 146.536 126.126 147.198 125.665 147.494C125.205 147.79 124.631 147.398 123.666 146.623C122.806 145.873 121.857 145.233 120.84 144.716H120.788C121.142 145.482 121.546 146.224 121.997 146.937C122.97 148.591 123.57 149.645 123.57 150.333C123.57 150.507 123.179 168.796 121.023 174.474C118.415 181.259 113.72 182.609 112.329 182.861C111.974 182.902 111.616 182.911 111.259 182.887Z" fill="#263238"/>
<path d="M156.991 166.994C156.548 166.994 156.122 166.994 155.783 166.942C153.696 166.785 146.445 164.399 140.046 162.3C136.203 161.037 132.578 159.844 130.77 159.365C127.629 158.449 124.824 156.633 122.701 154.14C122.651 154.09 122.612 154.029 122.586 153.963C122.561 153.896 122.55 153.825 122.553 153.754C122.557 153.683 122.576 153.614 122.609 153.551C122.641 153.487 122.687 153.432 122.742 153.387C122.797 153.343 122.862 153.311 122.93 153.293C122.999 153.275 123.071 153.272 123.141 153.284C123.211 153.295 123.278 153.322 123.337 153.361C123.396 153.401 123.446 153.452 123.484 153.513C125.485 155.818 128.099 157.507 131.022 158.381C132.865 158.869 136.508 160.062 140.359 161.333C146.393 163.31 153.896 165.784 155.861 165.932C158.8 166.158 163.781 165.531 165.424 162.883C167.068 160.236 167.328 153.783 166.876 152.198L166.816 151.98C166.276 150.073 165.016 145.588 160.903 144.22C155.757 142.478 146.776 140.031 145.819 140.197C145.619 140.197 145.402 140.737 145.271 141.024C145.071 141.477 144.863 141.938 144.402 141.947C143.941 141.956 143.637 141.416 143.533 141.19C143.35 140.824 143.167 140.397 142.985 139.953C142.707 139.282 142.115 137.889 141.794 137.81C141.379 138.193 141.003 138.616 140.672 139.073C139.872 140.101 139.333 140.815 138.725 140.562C138.116 140.31 138.186 139.692 138.186 139.448C138.203 138.838 138.279 138.231 138.412 137.636C138.69 136.225 138.699 135.738 137.76 135.381C135.534 134.51 135.038 130.843 135.038 129.493C135.038 129.359 135.092 129.231 135.186 129.136C135.281 129.041 135.409 128.988 135.543 128.988C135.676 128.988 135.805 129.041 135.899 129.136C135.994 129.231 136.047 129.359 136.047 129.493C136.047 130.364 136.403 133.796 138.116 134.44C139.829 135.085 139.646 136.556 139.403 137.828C139.31 138.328 139.255 138.835 139.238 139.343C139.455 139.099 139.716 138.76 139.916 138.472C140.285 137.948 140.714 137.469 141.194 137.044C141.315 136.949 141.456 136.882 141.607 136.849C141.757 136.816 141.913 136.817 142.063 136.852C142.863 137.07 143.35 138.237 143.915 139.578C144.072 139.953 144.228 140.327 144.376 140.65C144.611 140.127 144.932 139.422 145.61 139.247C146.897 138.934 157.861 142.165 161.26 143.297C165.868 144.839 167.285 149.855 167.815 151.745L167.876 151.954C168.398 153.765 168.207 160.471 166.311 163.458C164.512 166.271 159.947 166.994 156.991 166.994Z" fill="#263238"/>
<path d="M224.188 199.949C224.011 199.961 223.834 199.961 223.658 199.949C223.525 199.929 223.406 199.857 223.326 199.75C223.246 199.642 223.212 199.507 223.231 199.374C223.251 199.241 223.323 199.122 223.43 199.041C223.538 198.961 223.673 198.928 223.805 198.947C223.875 198.947 229.891 199.679 235.186 189.524C239.75 180.815 239.968 178.203 239.898 177.541C239.733 177.663 239.516 177.863 239.316 178.046C238.8 178.574 238.193 179.005 237.525 179.317C236.525 179.718 225.735 188.897 223.527 198.564C223.513 198.628 223.486 198.689 223.448 198.743C223.41 198.797 223.361 198.842 223.306 198.877C223.25 198.912 223.187 198.935 223.123 198.946C223.058 198.956 222.991 198.954 222.927 198.938C222.862 198.925 222.801 198.899 222.746 198.861C222.691 198.823 222.645 198.775 222.609 198.719C222.573 198.663 222.549 198.6 222.538 198.535C222.527 198.469 222.529 198.402 222.545 198.338C224.857 188.218 235.968 178.856 237.151 178.377C237.705 178.113 238.206 177.75 238.629 177.305C238.966 176.903 239.409 176.601 239.907 176.435C240.05 176.404 240.2 176.416 240.336 176.47C240.472 176.525 240.589 176.618 240.672 176.739C241.872 178.342 238.307 185.718 236.073 189.968C231.248 199.165 225.875 199.949 224.188 199.949Z" fill="#263238"/>
<path d="M224.953 198.764C224.88 198.763 224.808 198.747 224.742 198.715C224.676 198.683 224.618 198.638 224.571 198.581C224.528 198.53 224.495 198.472 224.475 198.408C224.455 198.345 224.447 198.278 224.453 198.212C224.459 198.145 224.477 198.081 224.508 198.021C224.539 197.962 224.581 197.91 224.632 197.867C224.701 197.815 231.509 192.023 234.456 185.753C234.516 185.638 234.619 185.551 234.741 185.509C234.864 185.468 234.998 185.475 235.116 185.53C235.233 185.585 235.325 185.683 235.372 185.804C235.419 185.925 235.418 186.06 235.369 186.18C232.326 192.659 225.571 198.372 225.284 198.642C225.192 198.721 225.074 198.764 224.953 198.764Z" fill="#263238"/>
<path d="M223.762 186.598H223.719C223.653 186.593 223.588 186.576 223.529 186.546C223.47 186.516 223.418 186.475 223.375 186.425C223.332 186.375 223.299 186.316 223.279 186.253C223.259 186.19 223.252 186.124 223.258 186.058C223.945 177.775 227.979 169.232 235.247 160.68C235.551 160.314 235.76 160.07 235.847 159.948C236.022 159.667 236.182 159.376 236.325 159.077C236.916 157.963 237.395 157.092 238.064 157.283C238.733 157.475 238.933 158.154 238.751 161.638C238.386 168.605 233.647 182.086 233.447 182.652C233.431 182.721 233.4 182.785 233.357 182.841C233.315 182.897 233.26 182.944 233.199 182.978C233.137 183.011 233.069 183.032 232.998 183.037C232.928 183.043 232.858 183.034 232.791 183.011C232.725 182.988 232.664 182.951 232.612 182.903C232.561 182.854 232.52 182.796 232.493 182.731C232.465 182.666 232.452 182.596 232.453 182.526C232.454 182.455 232.47 182.386 232.5 182.322C232.552 182.182 237.395 168.431 237.716 161.586C237.795 160.586 237.795 159.581 237.716 158.581C237.534 158.868 237.316 159.278 237.177 159.539C237.038 159.8 236.795 160.262 236.638 160.488C236.482 160.715 236.308 160.898 235.969 161.298C228.84 169.694 224.892 178.037 224.223 186.101C224.221 186.226 224.173 186.347 224.088 186.438C224.003 186.53 223.887 186.587 223.762 186.598Z" fill="#263238"/>
<path d="M224.014 191.597H223.875C223.748 191.558 223.64 191.471 223.576 191.353C223.513 191.236 223.498 191.098 223.536 190.97C226.466 180.919 233.3 168.326 233.369 168.17C233.4 168.111 233.443 168.06 233.494 168.018C233.545 167.977 233.603 167.946 233.667 167.927C233.73 167.908 233.796 167.902 233.861 167.91C233.927 167.917 233.99 167.937 234.048 167.969C234.106 168 234.157 168.043 234.199 168.094C234.24 168.145 234.271 168.204 234.29 168.267C234.308 168.33 234.314 168.397 234.307 168.462C234.3 168.528 234.28 168.591 234.248 168.649C234.178 168.779 227.405 181.311 224.501 191.292C224.462 191.387 224.394 191.467 224.306 191.522C224.219 191.577 224.117 191.603 224.014 191.597Z" fill="#263238"/>
<path d="M220.962 198.93C220.833 198.931 220.708 198.881 220.615 198.791C220.267 198.46 212.129 190.474 213.077 180.502C213.903 171.793 216.015 163.598 217.685 162.527C217.796 162.446 217.925 162.392 218.061 162.371C218.197 162.35 218.336 162.361 218.467 162.405C219.467 162.753 219.676 164.225 219.936 166.097C220.079 167.585 220.412 169.049 220.928 170.452C222.327 173.752 225.709 188.871 223.892 197.057C223.856 197.18 223.775 197.285 223.665 197.35C223.555 197.415 223.424 197.436 223.3 197.408C223.175 197.381 223.065 197.307 222.993 197.201C222.92 197.095 222.891 196.966 222.91 196.84C224.649 188.854 221.371 174.075 219.997 170.844C219.451 169.368 219.095 167.829 218.937 166.263C218.771 165.104 218.571 163.65 218.198 163.415C217.259 164.007 214.998 170.939 214.077 180.624C213.207 190.082 221.232 197.981 221.31 198.042C221.388 198.109 221.443 198.199 221.467 198.3C221.491 198.4 221.484 198.505 221.446 198.601C221.407 198.697 221.34 198.778 221.254 198.834C221.167 198.89 221.065 198.917 220.962 198.912V198.93Z" fill="#263238"/>
<path d="M221.658 197.736C221.561 197.735 221.466 197.707 221.385 197.655C221.303 197.602 221.238 197.528 221.197 197.44C216.85 187.808 216.146 174.283 216.146 174.152C216.141 174.087 216.15 174.02 216.171 173.958C216.192 173.895 216.225 173.837 216.269 173.788C216.313 173.738 216.366 173.698 216.425 173.67C216.485 173.641 216.549 173.624 216.615 173.621C216.745 173.619 216.871 173.668 216.965 173.757C217.06 173.847 217.115 173.97 217.12 174.1C217.12 174.231 217.859 187.573 222.093 197.031C222.146 197.152 222.149 197.29 222.102 197.413C222.055 197.537 221.961 197.638 221.84 197.693C221.783 197.72 221.721 197.735 221.658 197.736Z" fill="#263238"/>
<path d="M221.066 172.812C220.938 172.812 220.815 172.764 220.722 172.676C220.628 172.589 220.571 172.469 220.562 172.341C219.788 159.051 225.292 147.582 227.935 142.078C228.419 141.127 228.852 140.15 229.23 139.152C229.813 137.192 230.56 136.861 231.073 136.931C231.83 137.027 232.856 137.95 233.038 144.699C233.273 153.216 230.795 168.109 230.778 168.213C230.767 168.279 230.743 168.342 230.708 168.399C230.673 168.455 230.627 168.504 230.573 168.543C230.519 168.582 230.458 168.61 230.393 168.625C230.328 168.64 230.261 168.642 230.195 168.631C230.13 168.62 230.067 168.597 230.01 168.562C229.954 168.526 229.905 168.48 229.866 168.426C229.827 168.372 229.8 168.311 229.784 168.246C229.769 168.181 229.767 168.114 229.778 168.048C229.778 167.9 232.256 153.095 232.03 144.682C231.865 138.403 230.934 137.889 230.926 137.88C230.562 138.318 230.311 138.838 230.195 139.395C229.805 140.446 229.352 141.473 228.839 142.47C226.231 147.904 220.814 159.208 221.571 172.237C221.574 172.303 221.565 172.37 221.542 172.432C221.52 172.495 221.486 172.552 221.442 172.602C221.397 172.651 221.343 172.691 221.284 172.72C221.224 172.748 221.159 172.765 221.092 172.768L221.066 172.812Z" fill="#263238"/>
<path d="M223.571 184.446C223.446 184.445 223.326 184.399 223.234 184.315C223.141 184.232 223.081 184.118 223.067 183.994C222.901 182.487 223.44 180.188 224.432 176.007C224.927 173.9 225.536 171.278 226.231 168.039C227.684 160.551 228.755 152.993 229.439 145.396C229.455 145.263 229.52 145.142 229.622 145.056C229.724 144.97 229.854 144.926 229.987 144.934C230.053 144.939 230.117 144.958 230.176 144.989C230.235 145.019 230.287 145.062 230.329 145.113C230.371 145.164 230.402 145.223 230.421 145.286C230.44 145.35 230.446 145.417 230.439 145.483C229.753 153.121 228.68 160.719 227.222 168.248C226.518 171.496 225.901 174.118 225.405 176.225C224.449 180.301 223.919 182.539 224.066 183.88C224.081 184.013 224.043 184.146 223.96 184.251C223.876 184.355 223.755 184.422 223.623 184.438L223.571 184.446Z" fill="#263238"/>
<path d="M231.326 202.474C231.217 202.474 231.112 202.439 231.024 202.375C230.937 202.311 230.872 202.221 230.839 202.117C230.801 201.989 230.816 201.851 230.879 201.733C230.943 201.616 231.05 201.528 231.178 201.49L232.204 201.168C232.154 201.141 232.108 201.109 232.065 201.072C231.966 200.981 231.895 200.865 231.858 200.736C231.821 200.607 231.821 200.47 231.856 200.341C232.028 199.821 232.284 199.332 232.613 198.895L232.726 198.729C230.839 199.443 228.222 200.219 226.422 199.435C226.361 199.409 226.306 199.372 226.259 199.324C226.213 199.277 226.176 199.221 226.151 199.16C226.126 199.098 226.113 199.033 226.113 198.966C226.114 198.9 226.127 198.834 226.153 198.773C226.208 198.65 226.309 198.554 226.434 198.505C226.559 198.456 226.699 198.459 226.822 198.512C228.561 199.261 231.569 198.094 232.569 197.71C232.926 197.571 233.578 197.319 233.925 197.763C234.273 198.207 233.925 198.729 233.456 199.452C233.291 199.696 233.108 199.975 232.978 200.219C233.265 200.149 233.656 200.027 233.969 199.931C234.808 199.623 235.686 199.435 236.577 199.374C237.134 199.374 237.299 199.644 237.325 199.87C237.394 200.341 237.447 200.645 231.482 202.483L231.326 202.474Z" fill="#263238"/>
<path d="M219.31 198.634C219.228 198.635 219.147 198.614 219.076 198.573C217.702 197.82 216.453 196.859 215.372 195.725C214.546 194.854 213.937 194.619 213.633 194.697C213.577 194.72 213.528 194.758 213.493 194.808C213.458 194.857 213.437 194.915 213.433 194.976C213.419 195.106 213.369 195.23 213.289 195.335C213.21 195.439 213.103 195.52 212.981 195.568C212.503 195.751 212.033 195.368 211.486 194.924L211.347 194.819C211.347 194.88 211.347 194.941 211.347 194.993C211.434 196.012 211.573 197.545 210.477 198.05C210.417 198.077 210.351 198.093 210.285 198.095C210.219 198.097 210.152 198.086 210.09 198.063C210.028 198.039 209.971 198.004 209.923 197.958C209.874 197.913 209.835 197.858 209.808 197.797C209.78 197.737 209.765 197.671 209.763 197.605C209.761 197.538 209.772 197.472 209.795 197.41C209.819 197.348 209.854 197.291 209.899 197.242C209.945 197.193 209.999 197.154 210.06 197.127C210.503 196.927 210.399 195.768 210.338 195.08C210.277 194.392 210.234 193.835 210.651 193.6C211.068 193.365 211.564 193.713 212.103 194.14L212.52 194.471C212.593 194.294 212.704 194.136 212.845 194.008C212.987 193.88 213.155 193.785 213.338 193.73C213.781 193.6 214.72 193.6 216.059 195.037C217.065 196.074 218.219 196.954 219.484 197.649C219.544 197.68 219.597 197.722 219.641 197.773C219.684 197.824 219.717 197.884 219.737 197.948C219.758 198.012 219.765 198.079 219.759 198.146C219.753 198.213 219.733 198.278 219.702 198.337C219.666 198.416 219.612 198.484 219.544 198.535C219.475 198.587 219.395 198.621 219.31 198.634Z" fill="#263238"/>
<path d="M44.9231 198.015C44.0245 198.014 43.127 197.953 42.2366 197.832C38.2895 197.301 32.5339 195.219 27.5609 188.566C19.3101 177.479 18.9884 168.457 18.8667 164.599C18.8667 164.015 18.8667 163.562 18.7885 163.231C18.5711 161.489 18.7885 159.434 19.8057 159.007C20.0665 158.886 20.5968 158.798 21.162 159.486C21.528 159.998 21.7448 160.601 21.7879 161.228C21.9705 162.343 22.1792 163.614 24.6396 165.051C29.7866 168.039 46.9315 179.064 51.6785 195.437C51.7039 195.502 51.7155 195.572 51.7124 195.642C51.7093 195.713 51.6917 195.781 51.6606 195.844C51.6296 195.907 51.5858 195.963 51.532 196.008C51.4782 196.053 51.4156 196.086 51.3483 196.106C51.281 196.125 51.2103 196.13 51.1409 196.121C51.0714 196.111 51.0047 196.088 50.945 196.051C50.8852 196.014 50.8338 195.965 50.7939 195.908C50.754 195.85 50.7266 195.785 50.7134 195.716C46.0707 179.709 29.1954 168.866 24.1354 165.922C21.2576 164.25 20.9881 162.596 20.7968 161.394C20.7705 160.953 20.6296 160.527 20.3882 160.157C20.33 160.073 20.2525 160.004 20.1621 159.957C19.997 160.061 19.5449 161.193 19.7883 163.135C19.7883 163.484 19.8491 164.006 19.8752 164.59C20.0056 168.352 20.3186 177.157 28.3781 187.991C33.1251 194.383 38.5851 196.334 42.3322 196.856C44.7006 197.206 47.1156 197.064 49.4267 196.438C49.5535 196.397 49.6915 196.408 49.8104 196.468C49.9294 196.529 50.0196 196.634 50.0613 196.761C50.083 196.824 50.0917 196.89 50.0872 196.956C50.0826 197.023 50.0648 197.087 50.0348 197.147C50.0048 197.206 49.9632 197.259 49.9125 197.302C49.8618 197.344 49.803 197.377 49.7397 197.396C48.1738 197.841 46.5504 198.05 44.9231 198.015Z" fill="#263238"/>
<path d="M49.6869 196.238H49.5999C49.2783 196.177 41.5926 194.801 33.3071 187.399C28.1728 182.638 24.4383 176.56 22.5089 169.824C22.4935 169.76 22.491 169.693 22.5014 169.627C22.5119 169.561 22.5351 169.498 22.5698 169.442C22.6045 169.385 22.65 169.336 22.7037 169.297C22.7574 169.258 22.8183 169.23 22.8828 169.215C22.9473 169.199 23.0142 169.197 23.0797 169.207C23.1452 169.217 23.208 169.241 23.2645 169.276C23.321 169.31 23.3702 169.356 23.4091 169.41C23.448 169.463 23.476 169.524 23.4914 169.589C25.3623 176.132 28.9889 182.036 33.9765 186.659C42.0273 193.861 49.6956 195.246 49.7738 195.254C49.9041 195.28 50.0194 195.355 50.0956 195.463C50.1718 195.572 50.2029 195.706 50.1825 195.838C50.16 195.952 50.098 196.055 50.0074 196.128C49.9168 196.202 49.8033 196.241 49.6869 196.238Z" fill="#263238"/>
<path d="M54.6085 196.064C54.4771 196.076 54.3464 196.035 54.2453 195.95C54.1443 195.865 54.081 195.743 54.0695 195.611C54.0579 195.48 54.0991 195.349 54.1839 195.248C54.2687 195.146 54.3901 195.083 54.5216 195.072C54.6172 195.072 64.0851 193.077 64.4416 175.494C64.8763 156.099 60.9639 146.807 58.5383 144.377C58.034 143.863 57.5906 143.619 57.3732 143.706C56.443 144.072 56.3647 148.348 56.3212 150.9C56.2517 154.314 54.5824 157.597 52.3393 162.152C51.5655 163.702 50.6961 165.461 49.7832 167.377C46.3838 174.701 48.2096 187.338 48.227 187.46C48.2453 187.529 48.2489 187.6 48.2376 187.671C48.2263 187.741 48.2003 187.808 48.1614 187.867C48.1224 187.927 48.0713 187.977 48.0115 188.016C47.9516 188.054 47.8844 188.079 47.8142 188.09C47.7439 188.1 47.6723 188.096 47.6039 188.077C47.5355 188.058 47.4719 188.024 47.4173 187.979C47.3627 187.933 47.3183 187.877 47.2871 187.813C47.2558 187.749 47.2383 187.679 47.2358 187.608C47.1576 187.085 45.3405 174.545 48.8704 166.95C49.7398 164.991 50.67 163.232 51.4786 161.673C53.6869 157.24 55.2866 154.044 55.3475 150.856C55.4257 146.328 55.5909 143.314 57.0342 142.74C58.0166 142.348 58.973 143.323 59.286 143.61C62.6506 147.016 65.8674 158.189 65.4849 175.459C65.0676 193.922 55.1562 195.925 54.7389 196.003L54.6085 196.064Z" fill="#263238"/>
<path d="M42.8634 200.558C39.8987 200.454 39.7943 199.931 39.7422 199.687C39.69 199.444 39.8987 199.026 40.4116 198.817C41.1312 198.495 41.9237 198.371 42.7069 198.46C43.2917 198.523 43.8832 198.466 44.4457 198.294C45.7759 197.885 45.9846 197.38 45.9846 197.38C45.9998 197.316 46.0275 197.256 46.066 197.203C46.1044 197.151 46.1529 197.106 46.2087 197.072C46.2644 197.038 46.3263 197.015 46.3908 197.005C46.4553 196.995 46.5211 196.998 46.5845 197.014C46.7143 197.049 46.8257 197.133 46.8953 197.248C46.965 197.363 46.9876 197.501 46.9583 197.632C46.9583 197.798 46.6366 198.677 44.7413 199.261C44.0573 199.467 43.3397 199.538 42.6286 199.47C42.2563 199.422 41.8794 199.422 41.5071 199.47C41.9157 199.522 42.3765 199.557 42.8721 199.574C43.0058 199.574 43.134 199.627 43.2286 199.722C43.3232 199.817 43.3763 199.945 43.3763 200.079C43.3763 200.213 43.3232 200.342 43.2286 200.437C43.134 200.531 43.0058 200.584 42.8721 200.584L42.8634 200.558Z" fill="#263238"/>
<path d="M58.1042 197.693C58.0359 197.693 57.9683 197.679 57.9056 197.652C57.8428 197.625 57.7861 197.586 57.739 197.536C57.6445 197.442 57.5914 197.313 57.5914 197.179C57.5914 197.045 57.6445 196.917 57.739 196.822C58.0575 196.53 58.3485 196.209 58.6085 195.864L58.5563 195.916C58.1998 196.343 57.6869 196.979 56.9653 196.622C56.6826 196.452 56.4363 196.227 56.2409 195.961C56.0454 195.695 55.9045 195.393 55.8263 195.072C55.7952 194.941 55.8171 194.804 55.8872 194.689C55.9573 194.575 56.0699 194.493 56.2002 194.462C56.3305 194.431 56.4678 194.453 56.5819 194.523C56.696 194.593 56.7776 194.706 56.8088 194.836C56.9029 195.194 57.1259 195.504 57.4347 195.707C57.5392 195.543 57.6585 195.388 57.7912 195.246C58.1564 194.819 58.7736 194.096 59.53 194.601C59.6372 194.675 59.7264 194.772 59.7911 194.885C59.8558 194.998 59.8943 195.125 59.9039 195.254C59.956 196.064 58.9127 197.127 58.4607 197.545C58.3641 197.637 58.2372 197.689 58.1042 197.693Z" fill="#263238"/>
<path d="M54.5485 193.861C54.4824 193.874 54.4145 193.874 54.3485 193.861C54.2871 193.834 54.2316 193.796 54.1854 193.748C54.1392 193.699 54.1032 193.642 54.0797 193.579C54.0561 193.517 54.0454 193.45 54.0483 193.383C54.0512 193.316 54.0675 193.251 54.0964 193.19C58.9768 180.952 60.809 167.707 59.4346 154.601C59.4198 154.467 59.4579 154.333 59.5408 154.227C59.6238 154.121 59.7448 154.052 59.878 154.035C59.9438 154.026 60.0106 154.031 60.0745 154.049C60.1384 154.067 60.1981 154.098 60.25 154.139C60.3019 154.18 60.345 154.232 60.3766 154.29C60.4083 154.349 60.428 154.413 60.4344 154.479C62.9383 175.711 55.0875 193.425 55.0092 193.608C54.963 193.689 54.8956 193.755 54.8143 193.799C54.733 193.844 54.641 193.865 54.5485 193.861Z" fill="#263238"/>
<path d="M47.4185 185.553C47.3257 185.554 47.2343 185.529 47.1545 185.482C47.0748 185.434 47.0097 185.365 46.9664 185.283C46.9056 185.152 40.3241 172.054 42.4455 152.433C43.2984 143.903 45.2686 135.522 48.3053 127.508C49.3139 124.712 49.9746 122.866 49.792 121.716C49.6964 121.124 48.9226 115.899 50.3572 115.254C50.6441 115.124 51.1135 115.106 51.6526 115.768C53.1654 117.632 57.7385 131.74 57.469 143.384C57.469 143.45 57.4559 143.516 57.4306 143.577C57.4053 143.639 57.3681 143.694 57.3213 143.741C57.2745 143.788 57.2189 143.825 57.1577 143.851C57.0965 143.876 57.0309 143.889 56.9647 143.889C56.8985 143.889 56.8329 143.876 56.7717 143.851C56.7106 143.825 56.655 143.788 56.6081 143.741C56.5613 143.694 56.5242 143.639 56.4988 143.577C56.4735 143.516 56.4605 143.45 56.4605 143.384C56.73 131.644 52.0351 117.858 50.8701 116.386L50.731 116.238C50.4702 116.796 50.3745 118.921 50.7919 121.542C51.0092 122.944 50.3137 124.886 49.253 127.83C46.2489 135.77 44.2963 144.071 43.4453 152.52C41.3587 171.827 47.7924 184.673 47.8619 184.804C47.8933 184.862 47.9125 184.927 47.9186 184.993C47.9246 185.059 47.9172 185.126 47.8969 185.19C47.8767 185.253 47.8439 185.312 47.8005 185.362C47.7572 185.412 47.7041 185.454 47.6446 185.483C47.5758 185.524 47.4983 185.548 47.4185 185.553Z" fill="#263238"/>
<path d="M47.584 174.231C47.4533 174.231 47.3276 174.18 47.2335 174.089C47.1394 173.998 47.0843 173.874 47.0798 173.743C47.0798 173.56 46.9668 169.319 48.6099 160.14C50.2531 150.961 52.0876 129.232 52.0876 129.005C52.1029 128.873 52.1682 128.751 52.27 128.666C52.3718 128.58 52.5025 128.536 52.6353 128.544C52.7013 128.549 52.7656 128.568 52.8242 128.599C52.8829 128.629 52.9349 128.671 52.977 128.723C53.0191 128.774 53.0506 128.833 53.0696 128.896C53.0886 128.96 53.0946 129.027 53.0874 129.092C53.0874 129.31 51.2182 151.178 49.6098 160.323C48.0014 169.467 48.0883 173.665 48.097 173.708C48.0972 173.843 48.0458 173.972 47.9535 174.069C47.8613 174.166 47.7352 174.224 47.6014 174.231H47.584Z" fill="#263238"/>
<path d="M35.1509 173.56C35.0786 173.559 35.0072 173.543 34.9414 173.513C34.8755 173.483 34.8166 173.44 34.7684 173.386C34.6989 173.299 27.4827 164.912 25.7178 153.652C23.9529 142.391 23.2052 138.637 22.0662 137.017C21.4055 136.068 21.3794 135.049 22.0054 134.466C22.3445 134.144 23.7442 133.29 26.8306 135.833C30.9256 139.186 40.5761 151.509 43.0105 159.548C43.0399 159.673 43.0203 159.805 42.9557 159.916C42.8912 160.028 42.7865 160.11 42.6632 160.147C42.5399 160.184 42.4073 160.172 42.2924 160.114C42.1776 160.056 42.0892 159.956 42.0454 159.835C39.7067 152.11 30.1083 139.804 26.1873 136.617C24.2311 135.014 23.0226 134.875 22.7096 135.206C22.5183 135.389 22.5183 135.868 22.9183 136.434C24.1876 138.237 24.9092 141.886 26.735 153.495C28.4738 164.468 35.49 172.654 35.5596 172.724C35.6031 172.774 35.6363 172.833 35.6572 172.896C35.6782 172.959 35.6865 173.026 35.6816 173.092C35.6768 173.158 35.6589 173.223 35.629 173.283C35.5991 173.342 35.5578 173.395 35.5074 173.438C35.4083 173.523 35.2809 173.566 35.1509 173.56Z" fill="#263238"/>
<path d="M46.2104 182.774C46.1358 182.775 46.062 182.759 45.9943 182.727C45.9266 182.695 45.8668 182.649 45.8192 182.592C45.8192 182.539 41.5765 177.453 35.9948 169.328C30.4132 161.202 27.3789 146.449 27.2485 145.814C27.2359 145.749 27.2362 145.681 27.2495 145.616C27.2627 145.551 27.2887 145.49 27.3258 145.435C27.363 145.38 27.4106 145.332 27.466 145.296C27.5213 145.259 27.5833 145.234 27.6484 145.222C27.7784 145.198 27.9124 145.226 28.0225 145.299C28.1326 145.372 28.2104 145.484 28.2396 145.613C28.2396 145.77 31.326 160.732 36.8294 168.753C42.3328 176.774 46.5582 181.886 46.6017 181.938C46.6854 182.043 46.7249 182.176 46.7119 182.31C46.699 182.443 46.6344 182.566 46.5321 182.653C46.4425 182.73 46.3286 182.773 46.2104 182.774Z" fill="#263238"/>
<path d="M31.5344 142.087C31.4264 142.084 31.322 142.047 31.2361 141.981C31.1502 141.916 31.0873 141.824 31.0562 141.721C31.0562 141.616 27.8567 130.939 26.8656 123.989C26.6309 122.309 26.4048 120.933 26.2222 119.8C25.7354 116.848 25.5528 115.733 26.1353 115.176C26.2912 115.046 26.4767 114.957 26.6754 114.916C26.874 114.875 27.0797 114.883 27.2742 114.941C28.9087 115.263 42.6716 125.783 45.9927 137.932C46.0121 137.997 46.0184 138.065 46.0111 138.132C46.0037 138.2 45.983 138.265 45.9502 138.324C45.9173 138.383 45.8729 138.434 45.8197 138.476C45.7665 138.518 45.7054 138.548 45.6402 138.565C45.5751 138.583 45.507 138.587 45.4402 138.578C45.3733 138.569 45.309 138.546 45.2511 138.511C45.1932 138.476 45.1428 138.431 45.1029 138.376C45.063 138.321 45.0345 138.259 45.019 138.194C41.863 126.68 28.587 116.221 27.083 115.925C26.9938 115.909 26.9025 115.909 26.8134 115.925C26.6396 116.177 26.9091 117.789 27.2134 119.661C27.3959 120.784 27.622 122.178 27.8654 123.867C28.8392 130.747 31.9865 141.346 32.0212 141.451C32.059 141.579 32.0446 141.717 31.981 141.834C31.9175 141.952 31.81 142.039 31.6822 142.078C31.6338 142.09 31.5837 142.093 31.5344 142.087Z" fill="#263238"/>
<path d="M42.6199 157.144C42.5023 157.146 42.3878 157.106 42.297 157.031C42.2062 156.956 42.145 156.851 42.1244 156.735C41.1975 152.852 39.5423 149.182 37.2469 145.918C33.2129 140.031 30.7611 126.898 30.6655 126.341C30.6528 126.275 30.6532 126.208 30.6665 126.143C30.6797 126.078 30.7057 126.017 30.7428 125.961C30.78 125.906 30.8276 125.859 30.8829 125.823C30.9383 125.786 31.0003 125.761 31.0654 125.748C31.1975 125.728 31.3326 125.759 31.4426 125.835C31.5526 125.911 31.6292 126.027 31.6566 126.158C31.6566 126.288 34.1605 139.639 38.0729 145.317C40.463 148.691 42.1756 152.498 43.1155 156.526C43.128 156.591 43.1272 156.658 43.1133 156.723C43.0994 156.788 43.0726 156.85 43.0345 156.904C42.9964 156.959 42.9477 157.005 42.8915 157.04C42.8352 157.075 42.7724 157.099 42.7069 157.109L42.6199 157.144Z" fill="#263238"/>
<path d="M48.5571 128.788C48.4909 128.786 48.4258 128.771 48.3654 128.743C48.3051 128.716 48.2508 128.676 48.2056 128.628C48.1604 128.579 48.1251 128.522 48.1019 128.46C48.0787 128.398 48.0679 128.332 48.0703 128.266C48.2528 123.449 47.6616 120.271 45.9576 116.944L45.7576 116.569C42.4017 109.959 38.4632 102.017 37.8894 99.2647C37.5156 97.523 36.9331 96.8175 36.6548 96.8088C36.594 96.8088 35.8724 96.8698 34.9943 99.7873C33.4989 104.717 37.0113 123.084 37.0548 123.301C37.0801 123.433 37.0523 123.569 36.9773 123.681C36.9023 123.792 36.7863 123.868 36.6548 123.894C36.5234 123.919 36.3873 123.891 36.2764 123.816C36.1655 123.741 36.089 123.625 36.0636 123.493C35.9158 122.727 32.4643 104.69 34.0292 99.526C34.7769 97.0353 35.6376 95.8247 36.6375 95.8247H36.6462C37.9503 95.877 38.5676 97.8887 38.8197 99.0819C39.4457 102.052 44.6448 112.285 46.6444 116.134L46.8357 116.517C48.6267 120.001 49.2527 123.354 49.0614 128.353C49.0445 128.474 48.984 128.585 48.8912 128.666C48.7984 128.746 48.6797 128.789 48.5571 128.788Z" fill="#263238"/>
<path d="M44.9581 136.852C44.8321 136.851 44.7111 136.803 44.6181 136.718C44.5251 136.633 44.4666 136.516 44.4538 136.391C44.4538 136.33 43.967 129.937 43.4888 125.862C43.0106 121.786 38.2723 114.279 38.2028 114.209C38.1313 114.094 38.1085 113.954 38.1395 113.822C38.1705 113.69 38.2526 113.575 38.3679 113.504C38.4832 113.432 38.6222 113.409 38.7543 113.44C38.8863 113.471 39.0007 113.554 39.0722 113.669C39.2721 113.983 44.0104 121.507 44.506 125.74C45.0016 129.972 45.4711 136.251 45.4798 136.312C45.4894 136.445 45.4464 136.576 45.3601 136.677C45.2739 136.778 45.1513 136.841 45.019 136.852H44.9581Z" fill="#263238"/>
<ellipse cx="138.802" cy="140.649" rx="0.434708" ry="0.43544" fill="#263238"/>
<ellipse cx="144.453" cy="141.956" rx="0.869408" ry="0.870895" fill="#263238"/>
<ellipse cx="138.368" cy="140.214" rx="0.869415" ry="0.870888" fill="#263238"/>
<ellipse rx="0.654265" ry="3.27468" transform="matrix(0.894685 0.446698 -0.445481 0.895291 102.313 131.398)" fill="#263238"/>
</g>
<defs>
<filter id="filter0_d_598_8315" x="-3" y="0" width="261" height="236" filterUnits="userSpaceOnUse" color-interpolation-filters="sRGB">
<feFlood flood-opacity="0" result="BackgroundImageFix"/>
<feColorMatrix in="SourceAlpha" type="matrix" values="0 0 0 0 0 0 0 0 0 0 0 0 0 0 0 0 0 0 127 0" result="hardAlpha"/>
<feOffset dy="4"/>
<feGaussianBlur stdDeviation="2"/>
<feComposite in2="hardAlpha" operator="out"/>
<feColorMatrix type="matrix" values="0 0 0 0 0 0 0 0 0 0 0 0 0 0 0 0 0 0 0.25 0"/>
<feBlend mode="normal" in2="BackgroundImageFix" result="effect1_dropShadow_598_8315"/>
<feBlend mode="normal" in="SourceGraphic" in2="effect1_dropShadow_598_8315" result="shape"/>
</filter>
</defs>
</svg>
